<?xml version="1.0" encoding="UTF-8"?>
<svg xmlns="http://www.w3.org/2000/svg" xmlns:xlink="http://www.w3.org/1999/xlink" viewBox="0 0 50 50" width="50px" height="50px">
<g id="surface56032779">
<path style=" stroke:none;fill-rule:nonzero;fill:rgb(0%,0%,0%);fill-opacity:1;" d="M 25 0.828125 C 19.160156 0.828125 14.441406 5.546875 14.441406 11.386719 L 14.441406 15.789062 L 10.921875 15.789062 C 9.472656 15.789062 8.28125 16.980469 8.28125 18.425781 L 8.28125 39.546875 C 8.28125 40.996094 9.472656 42.1875 10.921875 42.1875 L 39.078125 42.1875 C 40.527344 42.1875 41.71875 40.996094 41.71875 39.546875 L 41.71875 18.425781 C 41.71875 16.980469 40.527344 15.789062 39.078125 15.789062 L 35.558594 15.789062 L 35.558594 11.386719 C 35.558594 5.546875 30.839844 0.828125 25 0.828125 Z M 25 2.585938 C 29.898438 2.585938 33.800781 6.488281 33.800781 11.386719 L 33.800781 15.789062 L 16.199219 15.789062 L 16.199219 11.386719 C 16.199219 6.488281 20.101562 2.585938 25 2.585938 Z M 10.921875 17.546875 L 39.078125 17.546875 C 39.566406 17.546875 39.960938 17.9375 39.960938 18.425781 L 39.960938 39.546875 C 39.960938 40.035156 39.566406 40.425781 39.078125 40.425781 L 10.921875 40.425781 C 10.433594 40.425781 10.039062 40.035156 10.039062 39.546875 L 10.039062 18.425781 C 10.039062 17.9375 10.433594 17.546875 10.921875 17.546875 Z M 25 24.585938 C 23.503906 24.585938 22.359375 25.730469 22.359375 27.226562 C 22.359375 28.019531 22.710938 28.710938 23.238281 29.152344 L 23.238281 31.628906 C 23.238281 32.597656 24.03125 33.386719 25 33.386719 C 25.96875 33.386719 26.761719 32.597656 26.761719 31.628906 L 26.761719 29.152344 C 27.289062 28.710938 27.640625 28.019531 27.640625 27.226562 C 27.640625 25.730469 26.496094 24.585938 25 24.585938 Z M 25 24.585938 "/>
</g>
</svg>
